<?xml version="1.0" standalone="no"?>
<!DOCTYPE svg PUBLIC "-//W3C//DTD SVG 20010904//EN"
 "http://www.w3.org/TR/2001/REC-SVG-20010904/DTD/svg10.dtd">
<svg version="1.0" xmlns="http://www.w3.org/2000/svg"
 width="512.000000pt" height="512.000000pt" viewBox="0 0 512.000000 512.000000"
 preserveAspectRatio="xMidYMid meet">
<metadata>
Created by potrace 1.11, written by Peter Selinger 2001-2013
</metadata>
<g transform="translate(0.000000,512.000000) scale(0.100000,-0.100000)"
fill="#000000" stroke="none">
<path d="M2438 4665 c-2 -3 -28 -6 -58 -9 -30 -3 -55 -5 -55 -6 0 -1 -16 -4
-35 -7 -19 -2 -64 -11 -100 -19 -36 -8 -72 -16 -80 -17 -21 -4 -102 -27 -120
-34 -8 -3 -19 -7 -25 -9 -40 -10 -171 -60 -173 -66 -2 -5 -9 -8 -16 -8 -17 0
-213 -101 -282 -145 -30 -19 -57 -35 -59 -35 -3 0 -14 -8 -24 -17 -22 -20 -67
-52 -78 -56 -4 -1 -17 -11 -28 -22 -12 -11 -43 -38 -70 -60 -48 -40 -183 -172
-220 -216 -11 -13 -38 -46 -60 -74 -22 -27 -42 -52 -45 -55 -14 -14 -50 -70
-50 -79 0 -5 -4 -11 -8 -13 -10 -3 -69 -95 -96 -148 -61 -116 -97 -192 -116
-240 -24 -58 -88 -251 -95 -285 -2 -11 -7 -31 -10 -45 -3 -14 -7 -36 -10 -50
-2 -14 -7 -41 -11 -60 -38 -206 -38 -556 0 -737 7 -34 11 -65 8 -68 -3 -3 -1
-5 4 -5 5 0 10 -12 10 -27 1 -16 4 -35 6 -43 3 -8 10 -35 17 -60 72 -267 215
-547 400 -780 76 -96 228 -247 324 -323 15 -12 40 -32 55 -44 15 -13 30 -23
33 -23 3 0 19 -11 35 -25 16 -14 43 -32 60 -40 17 -8 37 -21 44 -30 7 -8 18
-15 24 -15 6 0 28 -11 49 -25 20 -14 37 -22 37 -18 0 4 4 3 8 -2 8 -12 137
-75 152 -75 6 0 10 -4 10 -10 0 -5 3 -9 8 -8 4 1 48 -12 97 -31 132 -48 307
-93 415 -107 25 -3 58 -8 75 -11 43 -7 418 -13 428 -6 5 3 30 7 56 9 72 6 144
15 150 19 4 2 26 6 51 10 24 4 52 11 62 16 10 5 18 8 18 5 0 -3 12 -1 28 4 15
5 61 18 102 30 97 29 139 46 305 126 55 26 103 53 107 58 4 6 8 8 8 4 0 -12
205 125 279 187 113 92 289 270 336 338 6 8 32 43 58 78 27 35 67 96 90 134
23 39 45 73 50 76 5 3 10 12 11 20 1 8 22 52 45 99 55 111 107 252 138 370 13
52 27 102 30 110 3 8 5 18 5 23 -1 4 4 49 12 100 22 141 26 191 26 327 -1 158
-9 250 -36 408 -35 200 -141 483 -246 660 -11 17 -16 32 -11 32 4 0 0 5 -9 11
-10 5 -18 17 -18 24 0 8 -4 15 -8 15 -5 0 -15 12 -22 28 -8 15 -29 46 -47 69
-18 23 -33 46 -33 52 0 6 -4 11 -10 11 -5 0 -10 7 -10 17 0 9 -3 14 -6 10 -3
-3 -22 15 -42 41 -44 58 -198 212 -272 272 -75 61 -80 66 -72 75 4 5 2 5 -4 2
-7 -4 -39 13 -73 38 -34 25 -63 45 -65 45 -17 0 -104 65 -99 73 3 6 1 7 -4 4
-6 -4 -62 18 -124 48 -63 30 -120 55 -126 55 -7 0 -13 5 -13 12 0 6 -3 9 -6 5
-3 -3 -29 3 -58 15 -28 11 -57 21 -63 21 -7 0 -13 3 -13 6 0 4 -11 8 -24 9
-14 1 -44 8 -68 17 -24 8 -51 15 -61 15 -12 0 -16 4 -11 13 6 9 5 9 -8 0 -8
-7 -17 -10 -20 -7 -3 2 -18 7 -34 10 -16 3 -33 7 -39 8 -5 2 -32 6 -60 10 -27
4 -63 10 -80 13 -35 6 -441 13 -447 8z m366 -249 c38 -3 72 -8 74 -11 10 -10
-30 -55 -53 -61 -14 -3 -25 -10 -25 -15 0 -5 -3 -8 -7 -8 -5 1 -11 0 -15 -1
-5 -1 -11 -3 -15 -5 -28 -8 -56 -24 -43 -25 8 -1 24 -4 35 -6 11 -3 46 -7 77
-9 46 -3 62 0 84 17 l26 21 -28 12 -28 11 43 22 c47 25 79 29 126 18 17 -4 41
-9 55 -12 40 -9 234 -75 240 -82 3 -4 12 -8 20 -10 8 -2 35 -13 60 -24 25 -11
47 -20 49 -19 2 2 7 -1 10 -6 5 -7 61 -39 118 -67 13 -6 23 -14 23 -18 0 -5 5
-8 10 -8 12 0 73 -41 78 -52 2 -5 10 -8 18 -8 8 0 14 -4 14 -8 0 -4 12 -15 28
-24 15 -9 39 -28 54 -42 15 -14 29 -26 31 -26 9 0 141 -129 137 -133 -3 -3
-32 -7 -64 -11 -33 -3 -70 -13 -83 -21 -13 -9 -23 -13 -23 -10 0 3 -9 -4 -20
-15 -27 -27 -65 -42 -114 -46 -29 -2 -47 -11 -68 -33 -15 -16 -28 -33 -28 -37
0 -15 -46 -100 -66 -122 -23 -26 -53 -34 -71 -19 -7 5 -13 6 -13 2 0 -12 -53
26 -75 54 -74 93 -106 147 -102 174 3 24 1 28 -15 24 -39 -11 -25 12 22 34 78
37 78 70 -1 89 -47 12 -56 21 -24 26 8 1 15 -2 15 -7 0 -5 14 -9 30 -9 36 0
37 6 9 36 -19 20 -28 22 -66 17 -43 -6 -44 -5 -38 18 4 20 -2 28 -36 49 -23
14 -78 49 -122 78 -86 56 -103 62 -88 34 14 -27 42 -47 99 -72 56 -25 57 -27
39 -51 -13 -17 -67 -34 -67 -21 0 11 -39 52 -49 52 -5 0 -8 -10 -7 -22 1 -16
14 -30 43 -46 32 -18 40 -27 36 -43 -6 -21 -28 -22 -75 -4 -12 5 -18 2 -18 -8
0 -8 11 -18 25 -21 37 -9 31 -27 -7 -21 -31 5 -77 24 -88 35 -21 24 -90 51
-131 53 -26 0 -45 5 -43 9 3 4 12 8 20 8 16 0 71 47 85 73 6 9 6 24 2 31 -11
20 -127 96 -146 96 -8 0 -17 4 -19 9 -2 5 -17 4 -34 -4 -27 -11 -34 -21 -44
-66 -16 -67 -32 -83 -84 -85 -22 -1 -46 -2 -53 -3 -6 -1 -20 -18 -30 -38 -12
-25 -34 -45 -67 -62 -26 -14 -68 -44 -92 -67 -63 -58 -61 -97 8 -149 12 -10
90 -41 153 -63 17 -6 39 -13 50 -18 11 -4 28 -9 38 -10 38 -8 67 -36 67 -64 0
-48 9 -60 45 -60 26 0 35 5 40 21 4 12 3 24 -1 28 -5 3 -10 18 -12 33 -2 19 2
28 17 33 11 3 29 17 40 31 18 23 19 28 6 65 -8 21 -12 39 -8 39 3 0 0 7 -7 15
-7 8 -10 24 -7 35 3 11 1 18 -4 14 -16 -9 -10 43 6 56 19 16 82 15 101 -1 7
-6 18 -8 23 -5 5 4 12 2 16 -4 4 -6 10 -8 15 -5 5 3 21 -9 37 -25 15 -17 43
-47 62 -66 l34 -35 38 40 c46 51 61 47 96 -28 23 -47 133 -175 133 -154 0 4
11 -8 25 -27 30 -40 26 -47 -50 -84 -44 -21 -62 -24 -152 -23 -55 1 -100 0
-98 -3 2 -3 -9 -11 -24 -18 -15 -7 -28 -18 -28 -25 0 -6 -4 -21 -9 -32 -7 -17
-2 -16 29 8 20 15 37 26 37 23 0 -3 16 2 35 10 44 18 59 10 52 -26 -8 -38 13
-63 51 -62 37 1 92 31 92 49 0 7 5 13 10 13 6 0 10 7 10 16 0 21 38 74 54 74
15 0 43 -31 74 -81 27 -45 27 -49 0 -43 -26 5 -94 6 -120 1 -10 -2 -46 -21
-80 -44 -86 -55 -87 -56 -125 -60 -41 -4 -43 11 -3 32 17 9 30 19 30 23 0 12
-54 6 -58 -6 -2 -7 -10 -12 -18 -12 -8 0 -14 -4 -14 -10 0 -5 -5 -10 -11 -10
-6 0 -32 -22 -58 -48 -25 -27 -58 -55 -72 -64 -14 -9 -31 -29 -38 -45 -6 -16
-22 -33 -34 -38 -17 -8 -22 -18 -22 -47 0 -33 -6 -41 -51 -75 -28 -21 -58 -46
-67 -55 -19 -19 -22 -44 -7 -53 6 -4 8 -10 6 -14 -3 -4 -1 -25 4 -46 11 -47
-3 -83 -25 -65 -8 7 -25 31 -39 54 -30 52 -65 71 -124 68 -44 -2 -87 -8 -87
-12 0 -1 -11 -4 -25 -6 -83 -13 -96 -19 -143 -67 -33 -34 -47 -56 -44 -68 3
-11 2 -19 -2 -19 -20 0 -2 -101 23 -125 30 -30 64 -43 104 -41 36 2 50 9 84
44 42 44 84 55 95 26 3 -8 -7 -40 -21 -71 -15 -30 -26 -56 -24 -57 16 -12 68
-24 90 -21 42 5 56 -21 47 -90 -4 -31 11 -73 29 -80 10 -4 54 -8 100 -10 77
-3 84 -2 108 22 26 26 84 48 84 32 0 -13 34 -11 64 3 21 9 33 8 65 -7 22 -9
59 -18 83 -20 54 -3 68 -8 148 -61 37 -24 87 -48 115 -54 45 -9 125 -50 100
-50 -5 0 1 -7 13 -16 26 -18 29 -59 7 -88 -24 -32 -18 -38 28 -31 39 6 41 6
22 -9 -17 -13 -18 -17 -5 -26 11 -7 17 -5 24 10 11 25 27 25 76 0 21 -11 56
-22 77 -25 70 -9 116 -22 170 -48 53 -24 69 -65 44 -112 -8 -16 -15 -33 -16
-36 0 -3 -16 -21 -35 -40 -51 -49 -66 -78 -68 -129 -5 -96 -13 -121 -43 -139
-16 -9 -31 -23 -34 -31 -5 -17 -38 -40 -64 -45 -57 -11 -99 -47 -105 -89 -3
-20 -65 -106 -77 -106 -5 0 -9 -6 -9 -13 0 -7 -9 -19 -20 -27 -11 -8 -20 -19
-20 -25 0 -15 -52 -61 -64 -57 -21 7 -65 -10 -60 -23 3 -7 -2 -29 -11 -48 -17
-36 -54 -58 -103 -63 -15 -1 -30 -2 -34 -3 -5 -1 -8 -9 -8 -19 0 -10 -12 -22
-29 -29 -21 -7 -31 -20 -36 -44 -8 -35 -21 -63 -43 -90 -7 -9 -12 -30 -10 -45
3 -27 1 -29 -37 -30 -22 -1 -41 -2 -42 -3 -8 -3 -16 -5 -59 -11 -40 -6 -47 -5
-51 11 -3 10 -9 16 -14 13 -5 -3 -9 4 -9 16 0 11 7 23 15 26 29 12 42 82 30
169 -6 41 -2 67 20 135 14 47 29 108 32 135 8 86 11 110 13 110 4 0 14 138 15
196 0 61 -3 68 -32 97 -17 18 -35 32 -40 32 -20 0 -109 99 -161 179 -31 47
-57 88 -57 91 -1 3 -5 13 -9 22 -4 9 -3 25 3 37 6 11 11 40 11 64 0 35 8 57
36 98 48 71 58 138 23 157 -13 7 -40 11 -59 8 -55 -6 -160 60 -160 100 0 8 -4
14 -9 14 -5 0 -16 7 -24 15 -8 8 -34 17 -58 20 -24 3 -51 14 -61 25 -38 40
-62 50 -119 46 -47 -3 -64 1 -117 29 -34 17 -59 35 -55 39 4 4 1 4 -8 1 -24
-9 -95 60 -124 120 -15 30 -35 64 -46 76 -10 12 -16 26 -13 31 3 4 1 7 -4 6
-20 -6 -79 73 -73 97 2 6 -1 7 -5 3 -3 -4 -18 2 -32 12 -33 27 -43 25 -38 -5
5 -25 21 -51 83 -133 40 -53 44 -79 5 -37 -47 52 -139 178 -161 222 -13 25
-40 55 -68 75 -62 41 -82 67 -114 140 -24 54 -26 69 -22 152 7 150 5 177 -15
195 -29 26 -83 121 -76 133 4 6 3 8 -3 5 -5 -3 -23 7 -40 22 -17 15 -38 31
-47 34 -9 4 -16 11 -16 16 0 5 -9 13 -20 16 -11 3 -20 10 -20 14 0 5 24 34 54
66 30 31 65 69 79 83 56 62 209 192 225 192 6 0 12 4 14 9 4 12 170 121 185
121 6 0 13 3 15 8 3 7 92 52 155 78 31 13 32 13 53 -21 15 -25 31 -36 56 -41
19 -3 37 -10 40 -16 7 -12 -16 -39 -27 -32 -5 3 -9 1 -9 -5 0 -7 -38 -10 -104
-8 -124 2 -147 -8 -91 -43 34 -21 37 -21 49 -5 10 14 26 16 104 13 51 -3 95
-8 99 -11 10 -11 51 -8 58 3 14 22 13 50 -1 50 -8 0 -14 5 -14 10 0 15 52 12
73 -4 14 -11 16 -19 9 -33 -22 -43 15 -59 42 -18 16 24 14 65 -2 65 -4 1 -18
10 -31 20 l-23 20 23 20 c31 25 51 25 74 0 14 -15 22 -17 37 -9 11 6 29 9 39
6 26 -7 24 2 -2 11 -19 8 -20 10 -6 24 9 9 13 18 10 22 -11 11 30 46 54 46 12
0 23 4 23 9 0 19 -127 -25 -156 -54 -16 -15 -63 -21 -65 -7 0 4 -2 15 -4 25
-4 22 45 77 72 82 10 2 19 4 21 5 1 2 11 4 22 5 11 1 21 3 23 4 3 3 80 11 129
14 21 2 39 5 42 7 6 7 226 4 310 -4z m1647 -1335 c11 -39 22 -76 23 -83 2 -7
6 -24 9 -38 17 -66 16 -78 -8 -82 -27 -6 -48 5 -88 42 -37 35 -47 114 -21 169
16 34 40 60 56 61 4 0 17 -31 29 -69z m64 -291 c23 -37 24 -500 1 -539 -2 -3
-6 -28 -10 -56 -3 -27 -10 -65 -15 -84 -6 -18 -10 -36 -9 -40 4 -20 -15 -39
-33 -33 -29 11 -133 108 -164 153 -27 39 -28 43 -28 170 1 117 3 132 20 144
11 8 25 32 33 54 13 40 31 61 82 94 16 9 34 33 42 52 8 19 24 44 35 57 12 12
21 25 21 30 0 11 18 10 25 -2z"/>
<path d="M2517 4364 c-3 -4 -23 -8 -44 -9 -57 -4 -58 -4 -46 -16 7 -7 17 -8
25 -3 7 5 22 7 33 6 22 -2 53 13 44 22 -3 4 -9 3 -12 0z"/>
</g>
</svg>
